<svg xmlns="http://www.w3.org/2000/svg" xmlns:xlink="http://www.w3.org/1999/xlink" viewBox="0 0 615 243.1"><defs><style>.cls-1{fill:none;}.cls-2{clip-path:url(#clip-path);}.cls-3{fill:#0094a1;}.cls-4{fill:#fff;}</style><clipPath id="clip-path"><rect class="cls-1" width="615.1" height="243"/></clipPath></defs><g id="Layer_2" data-name="Layer 2"><g id="svg8"><g class="cls-2"><path class="cls-3" d="M591.4,9.5V8.8c0-.3-.3-.3-.7-.7a1.54,1.54,0,0,1-.7-.3h-2v3.4h2.1c.4,0,.7-.3,1-.3s.3-.3.3-.7V9.5m5.5,8.8h-4.1l-3.7-4.4h-1v4.4h-3V6.1h6.7c.7,0,1,.3,1.7.7a5.63,5.63,0,0,1,1.4,1c.3.3.3,1,.3,1.7a4.53,4.53,0,0,1-.7,2.4c-.3.7-1,1-2,1.4Zm2.7-5.8a9.51,9.51,0,0,0-2.7-6.8,9.11,9.11,0,0,0-6.8-3,8.66,8.66,0,0,0-6.8,3,8.82,8.82,0,0,0-2.7,6.8,9.51,9.51,0,0,0,2.7,6.8,9.11,9.11,0,0,0,6.8,3,8.66,8.66,0,0,0,6.8-3,10.05,10.05,0,0,0,2.7-6.8m2.7,0a12.58,12.58,0,0,1-3.7,8.8,12.17,12.17,0,0,1-8.8,3.7,12.58,12.58,0,0,1-8.8-3.7,12.17,12.17,0,0,1-3.7-8.8A12.58,12.58,0,0,1,581,3.7,12.17,12.17,0,0,1,589.8,0a12.58,12.58,0,0,1,8.8,3.7,11.43,11.43,0,0,1,3.7,8.8"/></g><g class="cls-2"><path class="cls-3" d="M84.8,12.5c-30.4,0-56.4,15.9-70.3,38.2C2.7,71.7,0,105.5,0,127.8s2.7,56.4,14.5,77.1C28,227.2,54,243.1,84.8,243.1H530.2c30.4,0,56.4-15.9,70.3-38.2,11.8-20.6,14.5-54.8,14.5-77.1s-2.7-56.4-14.5-77.1C587,28.4,561,12.5,530.2,12.5Z"/></g><g class="cls-2"><path class="cls-4" d="M381.2,115.2h37.5v-1c0-17.2-6.8-18.3-19.3-18.3-15.1-.3-17.8,4.5-18.2,19.3M118,96.7c12.2,0,18.9,1.4,18.9,17.9v.7H100c.4-14.2,3.4-18.6,18-18.6M65.9,128.4c0,40.2,10.1,54.8,52.7,54.8,15.9,0,28.7-1.4,38.2-6.4,8.8-5.1,14.2-13.9,14.2-29.7H137.5c-.3,11.5-8.1,12.8-18.9,12.8-15.5,0-18.6-6.4-18.6-25.7v-.7h71v-5.1c0-43.9-11.8-55.1-52.4-55.1-43.2,0-52.7,13.6-52.7,55.1m127.8-19.9c0,21.6,7.4,31.4,52.7,31.4,4.1,0,10.5-.3,14.2,1.4,3.4,1.7,5.1,4.7,5.1,10.1,0,9.5-3.4,10.5-19.6,10.5-8.8,0-17.9-.3-18.6-12.2H193.7c.3,23.7,11.5,31.4,32.4,33.1,6.4.3,13.2.3,20.3.3,28.7,0,52.7-4.7,52.7-35.8,0-29.7-15.5-31.8-52.7-32.8-18.6-.3-19.6-4.4-19.6-10.5,0-7.1.7-9.5,19.6-9.5,6.8,0,13.9.7,15.2,9.1h32.1V99.2c0-25.7-27-26-47.3-26-30.8.1-52.7.8-52.7,35.3M473.5,73.3h83.8V98h-25v84.2H498.2V98h-25V73.3ZM347.8,127.8c0-41.6,9.1-54.8,52.4-54.8,40.2,0,52,10.8,52,54.8v4.7h-71v1c0,19.3,3,26,18.9,26,10.5,0,18.6-1,19.3-12.8h32.8c-.3,15.2-5.4,24-14.2,29.1-9.1,5.1-22,6.4-37.9,6.4-42.2,0-52.3-14.2-52.3-54.4M41.2,202.4c-17.2-18.6-21-47.3-21-74.7s3.7-56.1,21-74.7C52,41.5,73,32.7,90.5,32.7H320V222.6H90.6c-17.9.1-38.6-8.7-49.4-20.2"/></g></g></g></svg>