<svg xmlns="http://www.w3.org/2000/svg" viewBox="0 0 953.6 153.4"><defs><style>.cls-1{fill:#0f0f0f;}</style></defs><g id="Layer_2" data-name="Layer 2"><g id="svg8"><path class="cls-1" d="M191.9,98.7H154.2l-8.5,23.6H133.5l34.4-90h10.4l34.4,90H200.5ZM157.7,89h30.6L173,46.9Z"/><path class="cls-1" d="M233.8,55.3l.4,8.4a24.4,24.4,0,0,1,20-9.6c14.1,0,21.3,8,21.4,23.9v44.2H264.2V77.9c0-4.8-1.1-8.4-3.3-10.7s-5.5-3.5-10.1-3.5a16.49,16.49,0,0,0-9.8,3,20.89,20.89,0,0,0-6.6,7.8v47.7H223V55.3Z"/><path class="cls-1" d="M308.4,39.1V55.3h12.5v8.8H308.4v41.5c0,2.7.6,4.7,1.7,6s3,2,5.7,2a26.41,26.41,0,0,0,5.4-.7v9.2a33.88,33.88,0,0,1-8.8,1.2c-5.1,0-9-1.5-11.6-4.6s-3.9-7.5-3.9-13.2V64H284.7V55.2h12.2V39h11.5v.1Z"/><path class="cls-1" d="M334.3,37.6a7,7,0,0,1,1.7-4.7,6.21,6.21,0,0,1,5-1.9,6.57,6.57,0,0,1,5.1,1.9,6.5,6.5,0,0,1,1.7,4.7,6.52,6.52,0,0,1-1.7,4.6,6.79,6.79,0,0,1-5.1,1.9c-2.3,0-3.9-.6-5-1.9A6.26,6.26,0,0,1,334.3,37.6Zm12.3,84.6H335.2V55.3h11.4Z"/><path class="cls-1" d="M387,106.7l16.6-51.4h11.7l-24,66.9h-8.7L358.4,55.3h11.7Z"/><path class="cls-1" d="M426.4,37.6a7,7,0,0,1,1.7-4.7,6.21,6.21,0,0,1,5-1.9,6.57,6.57,0,0,1,5.1,1.9,6.5,6.5,0,0,1,1.7,4.7,6.52,6.52,0,0,1-1.7,4.6,6.79,6.79,0,0,1-5.1,1.9c-2.3,0-3.9-.6-5-1.9A6.26,6.26,0,0,1,426.4,37.6Zm12.3,84.6H427.3V55.3h11.4Z"/><path class="cls-1" d="M489.4,65.6a32.79,32.79,0,0,0-5.6-.4q-11.25,0-15.3,9.6v47.5H457.1V55.4h11.1l.2,7.7c3.8-6,9.1-9,16-9a11.65,11.65,0,0,1,5.1.9V65.6Z"/><path class="cls-1" d="M541.2,115.6c-4.5,5.2-11,7.9-19.6,7.9-7.1,0-12.6-2.1-16.3-6.2s-5.6-10.3-5.7-18.4V55.4H511V98.6c0,10.1,4.1,15.2,12.4,15.2,8.7,0,14.6-3.3,17.4-9.8V55.3h11.4v66.9H541.3Z"/><path class="cls-1" d="M608.7,104.5a8.47,8.47,0,0,0-3.5-7.2c-2.3-1.7-6.4-3.2-12.2-4.4a53.05,53.05,0,0,1-13.8-4.5,19.8,19.8,0,0,1-7.5-6.2,14.89,14.89,0,0,1-2.4-8.5c0-5.5,2.3-10.1,7-13.9s10.6-5.7,17.8-5.7c7.6,0,13.7,2,18.5,5.9a18.66,18.66,0,0,1,7.1,15H608.2a10.31,10.31,0,0,0-4-8.1,14.79,14.79,0,0,0-10-3.4c-4.2,0-7.4.9-9.8,2.7a8.67,8.67,0,0,0-3.5,7.1,6.81,6.81,0,0,0,3.3,6.2c2.2,1.4,6.1,2.7,11.8,4a62.65,62.65,0,0,1,13.9,4.6,20.76,20.76,0,0,1,7.9,6.4,15.75,15.75,0,0,1,2.6,9.1,17.11,17.11,0,0,1-7.2,14.4q-7.2,5.4-18.6,5.4a33.33,33.33,0,0,1-14.2-2.8,23.73,23.73,0,0,1-9.7-7.9,19.39,19.39,0,0,1-3.5-11h11.4a11.65,11.65,0,0,0,4.6,9.1,18.09,18.09,0,0,0,11.3,3.4c4.3,0,7.8-.9,10.4-2.6A8.83,8.83,0,0,0,608.7,104.5Z"/><path class="cls-1" d="M705.6,110.9c-3.3,4-8.1,7.1-14.2,9.3a59.62,59.62,0,0,1-20.3,3.3,40.24,40.24,0,0,1-20.5-5.1A33.72,33.72,0,0,1,637,103.6c-3.2-6.5-4.8-14.1-4.9-22.8V74.7c0-9,1.5-16.8,4.5-23.3a33.47,33.47,0,0,1,13.1-15.1c5.7-3.5,12.4-5.2,20.1-5.2,10.7,0,19,2.5,25,7.6s9.6,12.5,10.7,22.2H687.6c-.8-5.2-2.6-8.9-5.5-11.3S675.4,46,670.4,46c-6.3,0-11.1,2.4-14.4,7.1s-5,11.8-5,21.1V80c0,9.4,1.8,16.6,5.4,21.4s8.8,7.2,15.8,7.2,11.9-1.5,14.9-4.5V88.6H670.2V74.9h35.4Z"/><path class="cls-1" d="M759.5,115.4c-4.4,5.4-10.5,8-18.3,8-7.2,0-12.6-2.1-16.4-6.2S719.1,107,719,99.1V55.3h17.9V98.6c0,7,3.2,10.5,9.5,10.5,6.1,0,10.2-2.1,12.5-6.3V55.4h17.9v66.9H760Z"/><path class="cls-1" d="M790.2,38a8.67,8.67,0,0,1,2.7-6.6,11.55,11.55,0,0,1,14.6,0,8.67,8.67,0,0,1,2.7,6.6,8.76,8.76,0,0,1-2.8,6.7,10.07,10.07,0,0,1-7.3,2.6,10.51,10.51,0,0,1-7.3-2.6A9.2,9.2,0,0,1,790.2,38Zm19,84.2H791.3V55.3h17.9Z"/><path class="cls-1" d="M821.1,88.3c0-10.4,2.3-18.7,7-24.9s11.1-9.3,19.2-9.3a20.26,20.26,0,0,1,16.1,7.3V27.2h17.9v95H865.2l-.9-7.1a21,21,0,0,1-17.2,8.3,22.82,22.82,0,0,1-19-9.3C823.5,108,821.1,99.3,821.1,88.3ZM839,89.6q0,9.45,3.3,14.4a10.81,10.81,0,0,0,9.5,5c5.5,0,9.4-2.3,11.7-7V75.6c-2.2-4.7-6.1-7-11.6-7Q839,68.6,839,89.6Z"/><path class="cls-1" d="M926.1,123.5q-14.7,0-24-9c-6.2-6-9.2-14-9.2-24.1V88.7a40.34,40.34,0,0,1,3.9-18,28.41,28.41,0,0,1,11-12.2,31.46,31.46,0,0,1,16.3-4.3q13.8,0,21.6,8.7c5.3,5.8,7.9,14,7.9,24.6v7.3H911a16.52,16.52,0,0,0,5.2,10.5,16,16,0,0,0,11,4c6.9,0,12.3-2.5,16.1-7.5l8.8,9.8a26.67,26.67,0,0,1-10.9,8.9A35.75,35.75,0,0,1,926.1,123.5Zm-2.1-55a11.17,11.17,0,0,0-8.6,3.6c-2.2,2.4-3.6,5.8-4.2,10.3h24.9V81c-.1-4-1.2-7-3.2-9.2S927.8,68.5,924,68.5Z"/><path class="cls-1" d="M91.9,45.3A193.07,193.07,0,0,0,48.3,82.8L32,70.1c-.4-.3-9.4,7.6-9.1,7.8L52.6,108a1.27,1.27,0,0,0,.9.4h.2a1.6,1.6,0,0,0,.9-.7C59.4,95.5,75.1,70,95.2,51.4a1.09,1.09,0,0,0,.3-1.3c0-.1-3.3-5-3.6-4.8Z"/><path class="cls-1" d="M111.4,18.6C66.6,18.6,59,1.6,58.9,1.4A2.21,2.21,0,0,0,56.8,0h0a2.43,2.43,0,0,0-2.1,1.4c0,.2-7.8,17.2-52.5,17.2A2.16,2.16,0,0,0,0,20.8V97.1c0,31.2,53.6,55.1,55.9,56.1a2.92,2.92,0,0,0,.9.2,1.49,1.49,0,0,0,.9-.2c2.3-1,55.9-24.9,55.9-56.1V20.9a2.31,2.31,0,0,0-2.2-2.3ZM101.3,92.7c0,24.4-42,43.1-43.8,43.9a2.5,2.5,0,0,1-1.4,0c-1.7-.8-43.8-19.5-43.8-43.9V33A1.69,1.69,0,0,1,14,31.3c35,0,41-13.3,41.1-13.5a1.71,1.71,0,0,1,1.6-1.1h0a1.71,1.71,0,0,1,1.6,1.1c.1.1,6,13.4,41.1,13.4a1.69,1.69,0,0,1,1.7,1.7V92.7Z"/></g></g></svg>