<svg xmlns="http://www.w3.org/2000/svg" viewBox="0 0 794.8 160"><defs><style>.cls-1{fill:#c01818;}.cls-2{fill:#75160d;}</style></defs><g id="Layer_2" data-name="Layer 2"><g id="svg8"><g id="layer1"><path id="path6847" class="cls-1" d="M408.6,104,387.2,91.4l-1.5,2.5c-4.8,7.7-11.5,11.5-19.7,11.5-14.2,0-24.7-10.7-24.7-24.7C341.3,66.5,352,56,366,56c8.4,0,14.5,3.6,19.7,11.5l1.5,2.5,21.4-12.6-1.9-2.7c-10.3-14.9-23.5-22-41-22-32.7,0-50.3,24.9-50.3,48.2s17.6,48.2,50.3,48.2a48.43,48.43,0,0,0,41-22.2Z"/><path id="path6849" class="cls-1" d="M407.4,128.7h29.5l8.8-21.8h44.2l8.8,21.8h29.7L475.6,1H449.2l7.1,17L407.4,128.7m60.7-77.4,11.9,30H455.9Z"/><path id="path6851" class="cls-1" d="M540.6,128.8h25.8V71.4h16.8V47.3H566.4V36c0-5,3.3-10.1,9.4-10.1a19.47,19.47,0,0,1,7.3,1.3l2.9,1.1L596.7,4.8l-2.9-1c-4.8-1.9-11.5-2.7-16.3-2.7-11.7,0-21.4,3.8-27.9,11.1-5.7,6.3-9,15.1-9,24.9V47.4H529.1V71.5h11.5Z"/><polygon id="polygon6853" class="cls-1" points="221.6 128.7 221.6 55.2 249 75.4 276.1 55.2 276.1 128.7 304.3 128.7 304.3 0.2 249 42 193.5 0.2 193.5 128.5 221.6 128.7"/><path id="path6855" class="cls-1" d="M641.7,32.6c-32.5,0-50.1,24.7-50.1,48s17.6,48,50.1,48c14.9-.2,28.9-6.9,39.8-19.3L660.4,97.8a26.32,26.32,0,0,1-19.3,8.4c-10.7,0-20.1-7.1-22.6-16.5h70.4V83.4c.3-34.9-27.5-50.6-47.2-50.8ZM619.1,68.9c3.4-8.8,10.7-13.8,20.1-13.8,9.6,0,17,5,20.9,14Z"/><path id="path6857" class="cls-1" d="M747.5,32.8c-32.5,0-50.1,24.7-50.1,48s17.6,48,50.1,48c14.9-.2,28.9-6.9,39.8-19.3L766.2,98a26.32,26.32,0,0,1-19.3,8.4c-10.7,0-20.1-7.1-22.6-16.5h70.5V83.6c.2-34.9-27.6-50.8-47.3-50.8ZM724.9,68.9c3.4-8.8,10.7-14,20.1-13.8,9.6,0,17,5,20.9,14Z"/><polygon id="polygon6863" class="cls-1" points="0 0 0 127.9 69.4 160 69.4 128.7 28.5 109.7 28.5 44.6 69.4 63.6 69.4 32.2 0 0"/><polygon id="polygon6865" class="cls-2" points="139.1 0 139.1 127.9 69.4 160 69.4 128.7 110.6 109.7 110.6 44.6 69.4 63.6 69.4 32.2 139.1 0"/></g></g></g></svg>