<svg xmlns="http://www.w3.org/2000/svg" xmlns:xlink="http://www.w3.org/1999/xlink" viewBox="0 0 884.5 168.4"><defs><style>.cls-1{fill:none;}.cls-2{clip-path:url(#clip-path);}.cls-3{fill:#00a88e;}</style><clipPath id="clip-path"><rect class="cls-1" width="884.5" height="168.4"/></clipPath></defs><g id="Layer_2" data-name="Layer 2"><g id="svg8"><g class="cls-2"><path class="cls-3" d="M545,47.5h-3V36.1H520.7V134H542V82.8c0-17.5,8.1-27.6,24-27.6h13.5V33.7h-7.8c-14.9,0-21.1,5.5-26.7,13.8Zm140.7,86.6H707V0H685.7V134.1Zm-44-58.2-14.2-1.4c-11.2-1-17.1-4.1-17.1-10.6,0-7.7,7.5-12.2,18.3-12.2,11.2,0,18.3,5.3,18.9,12.8h20.5c-.8-19.1-15.6-30.9-39.2-30.9-23.8,0-39.8,12.6-39.8,31.1,0,15.4,9.8,25.4,31.9,27.6l14.4,1.4c8.7.8,14.6,2.6,14.6,11,0,7.5-5.5,13-19.9,13-13.3,0-19.8-6-22.1-14.1H585.8c2.2,18.5,17.7,32.8,44.3,32.8,25,0,41.2-13.2,41.2-32.7.1-17.2-11.3-25.9-29.6-27.8ZM775.3,36.1h-26L718.2,76.9V89.7L750.1,134h26.4L739.1,83.2l36.2-47.1Zm85.6,0L843.4,74.9c-4.3,9.4-8.3,18.5-9.5,24.6h-3.1c-1.2-6.1-5.5-15-9.7-24.4l-17.5-39H780l41,88-20.3,44.3h22.8l61-132.3Zm-771.3,0h-26L32.5,77V89.8l31.9,44.3H90.8L53.4,83.3,89.6,36.1ZM0,134.1H21.3V0H0V134.1ZM144.7,33.7c-23.4,0-40.8,12.2-42.9,30.9h23c1.6-6.9,7.9-12,19.9-12,15.4,0,20.5,8.1,20.5,18.1v33.5c-8.7,10-18.9,14.6-29.1,14.6-10.6,0-17.9-5.1-17.9-14.2,0-8.7,5.7-14.2,16.7-14.2H152V75H134.3c-24.4,0-38,12.2-38,30.9,0,17.5,13.2,30.7,35,30.7,12.2,0,23-4.9,30.9-10.8h3v8.3h21.3V68.7c.1-24.2-16.4-35-41.8-35Zm336.4,70c-3.3,7.7-11.3,13.5-22.7,13.5-15.6,0-27.2-10.2-27.2-32.1,0-20.9,10.8-32.5,27.4-32.5,14.8,0,23.4,8.9,24.2,22.4H444.4V90.4h59.3V80.2c0-28.2-18.7-46.5-45.3-46.5-24.8,0-48.6,16.9-48.6,51.4s23.8,51.4,48.6,51.4c22.7,0,38.8-14,43.9-32.8ZM258.2,75.9,244,74.5c-11.2-1-17.1-4.1-17.1-10.6,0-7.7,7.5-12.2,18.3-12.2,11.2,0,18.3,5.3,18.9,12.8h20.5c-.8-19.1-15.6-30.9-39.2-30.9-23.8,0-39.8,12.6-39.8,31.1,0,15.4,9.8,25.4,31.9,27.6l14.4,1.4c8.7.8,14.6,2.6,14.6,11,0,7.5-5.5,13-19.9,13-13.3,0-19.8-6-22.1-14.1H202.3c2.2,18.5,17.7,32.8,44.3,32.8,25,0,41.2-13.2,41.2-32.7.1-17.2-11.3-25.9-29.6-27.8Zm140.2,8.8c0,33.5-20.5,49.4-46.1,49.4H336.7V114h14.4c15.4,0,25.7-8.3,25.7-29.3,0-20.7-9.7-31.1-26.2-31.1-15.8,0-27.2,9.8-27.2,30.7v84.1H302.1V36.1h21.3V47.5h3C333.5,38,344,33.7,355,33.7c23.7,0,43.4,17,43.4,51Z"/></g></g></g></svg>