<svg xmlns="http://www.w3.org/2000/svg" width="20.154" height="10" viewBox="0 0 20.154 10"><path d="M.766,10.417H2.432V3.322H.766ZM1.6,2.392A.907.907,0,1,0,1.6.578a.907.907,0,1,0,0,1.814ZM7.981.6C5.164.6,3.4,2.519,3.4,5.591s1.767,4.987,4.585,4.987S12.56,8.664,12.56,5.591,10.793.6,7.981.6Zm0,1.473c1.72,0,2.818,1.365,2.818,3.521S9.7,9.105,7.981,9.105,5.164,7.74,5.164,5.591,6.255,2.071,7.981,2.071ZM13.263,7.7c.074,1.781,1.533,2.878,3.755,2.878,2.336,0,3.809-1.151,3.809-2.985,0-1.439-.83-2.249-2.791-2.7l-1.111-.254c-1.185-.281-1.673-.656-1.673-1.3,0-.8.736-1.339,1.827-1.339s1.861.542,1.941,1.446h1.647C20.626,1.75,19.22.6,17.091.6,14.99.6,13.5,1.756,13.5,3.47c0,1.379.843,2.236,2.624,2.644l1.252.295c1.218.288,1.714.689,1.714,1.386,0,.8-.81,1.379-1.974,1.379S15.043,8.59,14.936,7.7H13.263Z" transform="translate(-0.672 -0.578)"/></svg>