<svg xmlns="http://www.w3.org/2000/svg" viewBox="0 0 747.88 199.5"><defs><style>.cls-1{fill:#e21d25;}</style></defs><g id="Layer_2" data-name="Layer 2"><g id="svg8"><path id="path57" class="cls-1" d="M26,199.5c-39.9-48.8-32.4-117.1,12.6-159.1S153.68.6,197.18,42.7l-74.8,68.5c.4.5,54.5,59.5,54.5,59.5a11.18,11.18,0,0,0,8.2,4.2,10.7,10.7,0,0,0,8.9-17.2,11.24,11.24,0,0,1-2.2-9,11,11,0,0,1,9.7-8.7,11.17,11.17,0,0,1,9,3.4,31.54,31.54,0,0,1,7.6,21.3c-.1,16.1-13.6,31.7-31.7,31.9a32.56,32.56,0,0,1-23.2-9.1l-56.7-61.8Zm4-31.2L59.78,141h0l106.8-97.8C82.58-5.5-13.22,88,30,168.3"/><path id="path37" class="cls-1" d="M728.18,22.5h2.5V15.6h2.7l4.6,6.9h2.5l-4.7-7.1c2.5-.3,4.5-1.6,4.5-4.6,0-3.3-2-4.9-5.6-4.9h-6.4l-.1,16.6Zm2.5-9.2v-5h3.4c1.8,0,3.6.3,3.6,2.4,0,2.5-2,2.6-4.3,2.6Zm-11,.8A14.1,14.1,0,1,0,733.78,0a14.17,14.17,0,0,0-14.1,14.1M733.88,26a11.68,11.68,0,0,1-11.6-11.9,11.6,11.6,0,1,1,23.2,0A11.74,11.74,0,0,1,733.88,26"/><path id="path39" class="cls-1" d="M366.48,27.9H399l15.6,130.8,15.6-130.8h32.5l-27,157.8h-42.3Z"/><path id="path41" class="cls-1" d="M579.88,178.3V129.7c0-4.2-1.2-7.3-3.5-9.4s-6-3.1-10.9-3.1a19.3,19.3,0,0,0-2.3.1c-.9.1-2.3.2-4.1.4v67.9H529V27.8h42.6c11.6,0,20.6,2.5,27.1,7.7s9.8,12.1,9.8,21.1v23c0,6.9-1.9,12.3-5.7,16.5s-9.2,6.4-16,6.8c8.2.7,14.2,3.3,18.1,7.9s5.8,11.4,5.8,20.5v46.4a8.94,8.94,0,0,0,1.5,4.5,17.3,17.3,0,0,0,2.7,3.5h-30.8a9.08,9.08,0,0,1-3.2-2.9,10,10,0,0,1-1-4.5m-20.8-87.6c.6.1,1.2.1,2,.2h3.1c4.6,0,8-.8,10.2-2.6s3.3-4.5,3.3-8.2V65.9c0-3.6-1.1-6.3-3.4-8s-5.7-2.6-10.3-2.6h-3a11.08,11.08,0,0,0-1.9.2V90.7Z"/><path id="path43" class="cls-1" d="M274.08,185.7l27-157.8h42.3l27,157.8h-32.5l-3.5-27.7h-24.1l-3.5,27.7Zm39.4-56.5h17.2l-8.5-74.4Z"/><path id="path45" class="cls-1" d="M510.08,185.7h-31.8V27.9h31.8Z"/><path id="path55" class="cls-1" d="M623.38,185.7l27-157.8h42.3l27,157.8h-32.5l-3.5-27.7h-24.1l-3.5,27.7Zm39.4-56.5H680l-8.4-74.4Z"/></g></g></svg>