<svg xmlns="http://www.w3.org/2000/svg" viewBox="0 0 900.24 177.95"><defs><style>.cls-1{fill:#bd061b;}</style></defs><g id="Layer_2" data-name="Layer 2"><g id="svg8"><path class="cls-1" d="M688.3,44.9H688c-5.9-7.9-14.1-12-24.9-12-24.7,0-36.8,21.6-36.8,44.4,0,24.6,11.6,48.2,39,48.2a27.71,27.71,0,0,0,24-12.6h.3V123h27.2V2.6H688.2Zm-16,58.7c-13.1,0-17.5-13.3-17.5-25.3,0-11.1,4.4-23.5,17.5-23.5,12.4,0,17,11.6,17,24.3,0,11.2-3,24.5-17,24.5ZM83.7,57c9.4-4.7,15.8-13.5,15.8-24.3C99.5,7.6,76.8,2.2,56.1,2.5H0V123H57.7c25.7,0,46.7-8.8,46.7-37.4C104.4,71.9,96.5,60.8,83.7,57ZM31.3,26.9H55.5c6.6,0,12.8,2.9,12.8,11.6S60.9,50,55.5,50H31.3Zm25,71h-25V70.2h25c9.4,0,16.8,3.5,16.8,14.2C73.1,94.3,66.2,97.9,56.3,97.9ZM165.9,82.4c0,15.5-9.4,19.6-15.6,19.6-9.1,0-14.1-4-14.1-15.7V37.5H107.6V88.2c0,22.9,7.2,37.5,32.3,37.5,10.1,0,21.2-5.6,26.6-14.5h.3v12h27.7V37.6H165.9ZM200.4,123H229V2.6H200.4Zm34.5,0h28.6V2.6H234.9Zm211-40.6c0,15.5-9.4,19.6-15.6,19.6-9.1,0-14.1-4-14.1-15.7V37.5H387.6V88.2c0,22.9,7.2,37.5,32.3,37.5,10.1,0,21.2-5.6,26.6-14.5h.3v12h27.7V37.6H445.9ZM563.8,62.3c0-24.8-20-29.4-40.7-29.4-9.9,0-20,1.7-27.7,6.1-7.7,4.6-13.1,12-13.6,23.4h26.7c1.4-7.4,6.4-11,14.3-11,5.9,0,13.8,2.5,13.8,9.1,0,5.4-2.7,7.1-7.6,8.1-19.8,4.1-50.8,1.9-50.8,30.4,0,18.1,13.1,26.5,29.7,26.5,10.4,0,21.3-3,28.7-10.8a34,34,0,0,0,1.7,8.3H567c-3.4-6.9-3.4-15-3.4-22.4V62.3Zm-45,45.5c-6.4,0-11.9-2.9-11.9-9.9s5.4-9.6,11.8-11.1c6.2-1.7,13.6-2.2,17.6-4.7.6,18-3.9,25.7-17.5,25.7ZM332.1,76.4H354c1.3,12.1-10.5,22.2-27.6,22.2-20.2,0-27.9-17.9-27.9-35.8S306.2,27,326.4,27c10.8,0,19.8,4.6,22.7,12.4h31.7C376,12.1,350.8,0,327.1,0c-36.3,0-59.8,27.8-59.8,62.8s23.5,62.8,59.8,62.8c11.1,0,25.2-4,33.4-15.7l1.9,13.2h20.2V53.2H332.2V76.4ZM598.4,52.7h-.3V37.4H570.4V123H599V81.6c0-11,7.4-20.8,21.5-20.8a29.22,29.22,0,0,1,5.1.4V35.7h-.9C612.3,35.7,602.6,41.6,598.4,52.7ZM784.3,108ZM900,51.3c-.1-1.8-.5-5.6-.5-5.6s.2-2-3.4-4.8a5.78,5.78,0,0,0-1.4-.5q-3.6-1.35-7.2-3a12.3,12.3,0,0,0-6.2-1.7,4.28,4.28,0,0,0-1.6.5,4.86,4.86,0,0,1-2.8,1.3,6.6,6.6,0,0,0-1.4-.1c-.6.1-1.1.2-1.6.3-.1,0-.2.1-.3.1s-.2-.1-.3-.2c0,.1.1.1.2.2-.2-.1-.5-.2-.5-.1,0-.1.3.1.5.2h-.2c-.1,0-.1-.1-.2-.1a.1.1,0,0,1,.1.1H873c.1,0,.2.1.3.2a3.47,3.47,0,0,1-1.3-.2.35.35,0,0,0,.2.1,1.42,1.42,0,0,0,.6.2l-.6.1-.6-.3a1.41,1.41,0,0,0,.5.3h-.6c-.2-.1-.3-.1-.3-.2l.2.2h-.1c-.1,0-.2,0-.2-.1,0,.1.1.1.2.1a.91.91,0,0,0,.7.3h-.5a.37.37,0,0,1-.3-.1h0a.1.1,0,0,1-.1-.1l.1.1h0v.2c-.1,0-.1,0-.1-.1l.1.1c0,.1.1.2.1.3h-.2c0-.1-.1-.2,0-.2V39a.1.1,0,0,1-.1-.1c0,.1,0,.1.1.1v.1H871v-.3a.76.76,0,0,0-.2-.5v0c-.1-.1-.2-.3-.4-.3a.78.78,0,0,1,.4.4h0c0,.2-.1.4-.1.7h0a.6.6,0,0,1-.1.4v-.3h0v-.3l.2-.4a1.44,1.44,0,0,1-.2.3c0-.1,0-.1-.1-.1l.1.1-.1.1a.35.35,0,0,0-.1-.2c.1,0,.1.1.1.2a.1.1,0,0,1-.1.1v0c-.1.1-.1.2-.2.2a.35.35,0,0,0-.2.1h0v-.2c.2,0,.3-.1.4-.1h-.3a.35.35,0,0,0,.2-.1h-.2c.1-.2.1-.3.2-.5-.1.1-.2.3-.3.4v0h-.1a.6.6,0,0,0-.4.1h-.3a.1.1,0,0,1,.1-.1c.1,0,.2-.1.3-.1s.2-.1.3-.1a.6.6,0,0,1-.4.1,2,2,0,0,0-.7.1c.1-.1.1-.1.2,0,0-.1-.1,0-.2,0h-.2c.1,0,.2-.1.3-.1.5-.1,1.2-.2,1.2-.2a9.29,9.29,0,0,0-1.3.1h-.2c.1,0,.1,0,.2-.1h-.1c.3-.2.6-.3.9-.5a2,2,0,0,0-.8.4h-.2a.1.1,0,0,0,.1-.1h-.3c.1,0,.2-.1.4-.1h-.5c.1-.1.3-.3.2-.3s-.1.2-.3.3h-.1l.2-.2-.2.2a.1.1,0,0,0-.1-.1l.1.1h-.5a4.71,4.71,0,0,1,.5-.2H868c.2-.1.5-.2.7-.3-.1,0-.2.1-.3.1s-.3.1-.4.1h-.1a.76.76,0,0,0-.4.1h0a.1.1,0,0,0,.1-.1,1.7,1.7,0,0,1,.7-.1,2,2,0,0,0-.8.1v0h-.1l-.1-.1c.1,0,.1-.1.1,0s-.1,0-.1,0a.1.1,0,0,1-.1-.1.31.31,0,0,1,.2-.1l-.2.1c.1-.1.2-.1.3-.2a.76.76,0,0,1-.4.2h0c-.1,0-.2.1-.3.1h0c.2-.1.5-.3.5-.3l-.4.2h-.1a.37.37,0,0,1,.3-.1.49.49,0,0,0-.3.1h0a1.24,1.24,0,0,0,.3-.2H867c-.1,0-.2.1-.3.1h-.1c.1-.1.2-.2.1-.3.1.1,0,.2-.1.3h-.1a.1.1,0,0,1-.1-.1h0l-.1-.1h0a.31.31,0,0,1,.2-.1.31.31,0,0,0-.2.1.1.1,0,0,0-.1.1l.1-.1a.35.35,0,0,0,.2-.1.1.1,0,0,0-.1.1h0c-.1,0-.2.1-.3.1H866l.4-.2a2,2,0,0,1-.5.1h-.1l-1.2-.3c-2.3-.3-4.4,0-5.7-.2a12.51,12.51,0,0,1-3.2-.8l-2-1.4s-1.5-1.2-5.6-.3a37.38,37.38,0,0,1-5.4,1.7s-4.3,0-6.1,2.3c0,0-.5.2-2.1,3.5-1.2,2.1-1.4,2.2-1.6,3.6a12.21,12.21,0,0,1,.6,2.6c0,.5-.4.9.1.9,2.3.4,3.1-3.3,3.1-3.9.7-.2.9,1.2.9,1.2a12.46,12.46,0,0,1-.3,4.7c-.7-.1-1.2-.2-1.8-.3l-.4-.2a.35.35,0,0,0,.2.1H835c-.1-.1-.2-.1-.2-.2l.1.1a2.2,2.2,0,0,0-.8-.1v0h-.2a.1.1,0,0,1-.1-.1h.1c-.1,0-.2-.1-.3-.1.1,0,.1,0,.2.1h-.1a.77.77,0,0,0-.3-.1c.1.1.1.1.2.1h-.3c-.1,0-.1-.1-.2-.2l.1.1A5,5,0,0,0,832,50a2.92,2.92,0,0,1,.9.2c.1,0,.1.1.2.2h0a4.2,4.2,0,0,1-.5-.2l.4.2h-.1a4,4,0,0,0-1.5-.3,3.08,3.08,0,0,1,1.3.3h-.3a3.67,3.67,0,0,0-1.8-.1,7.57,7.57,0,0,1,1.5.1H832a4.53,4.53,0,0,0-.8-.1,2.14,2.14,0,0,1,.6.1h-1.7a5,5,0,0,1,1.2.2h-.5a6.6,6.6,0,0,0-1.4.1,4.05,4.05,0,0,1,1.1,0c-.4,0-.6.1-.8.1h1.1c.1,0,.2,0,.2.1h0c-.6,0-1.1.1-1.4.1h-.1a1,1,0,0,0-.4.1c0-.1.2-.1.6-.1l.7.1h-.1a9,9,0,0,0-1.6.3c.4-.1.8-.1,1.2-.2a.1.1,0,0,0-.1.1,13,13,0,0,0-1.3.3,24.13,24.13,0,0,0-5-2.1c-2.5-.5-5.8-1.2-8.2-1.7-2.9-2.2-9.8-4.7-25.9-4.7A37.38,37.38,0,0,0,776.5,45l-1.2.3c-.7.4-1.5.4-2.6.9.1-.3.2-.8.2-.8-.1.3-.3.5-.4.8h0a8.79,8.79,0,0,0-.6-1c.1.3.3.5.4.8-.2-.2-.4-.3-.6-.5a1.73,1.73,0,0,0-.4-.3,1.44,1.44,0,0,1,.3.2,1.85,1.85,0,0,0-.7-.2,2.57,2.57,0,0,0-1.5-.1h.7l-1.6.2h.7a17.85,17.85,0,0,0-2.3.2,4.87,4.87,0,0,1,1.2-.1,7.94,7.94,0,0,0-2.2.6.76.76,0,0,0-.4.2.37.37,0,0,1,.3-.1l.9-.3a.1.1,0,0,0-.1.1.37.37,0,0,1,.3-.1l-.6.3a2.35,2.35,0,0,0-.8.2,4.71,4.71,0,0,0-1.5.6,8.45,8.45,0,0,1,1.7-.5h-.2a6.11,6.11,0,0,0-1.4.7c.2-.1.3-.2.5-.2-.2.1-.3.2-.5.3a3.11,3.11,0,0,0-.9.7,7.46,7.46,0,0,1,1.2-.7c-.1.1-.2.1-.3.2s-.3.2-.4.3a2.7,2.7,0,0,0-.8.7,1.33,1.33,0,0,0-.8.3,1.85,1.85,0,0,1,.7-.2l-.6.6a7.28,7.28,0,0,1,.7-.6h.2c-.1.1-.3.2-.4.4l-.3.3c-.4.2-.7.3-.6.4a1.41,1.41,0,0,1,.5-.3l-.3.3a13.07,13.07,0,0,0-1.1,1.2l.5-.5h0a1.87,1.87,0,0,1,.4-.3c-.2.2-.3.4-.4.5l-.1.1c-.4.3-.8.6-.7.7a1.73,1.73,0,0,0,.4-.3,3.61,3.61,0,0,1-.4.5l.5-.5c.1,0,.2-.1.3-.1a3.51,3.51,0,0,0-.5.8,4.7,4.7,0,0,1,.6-.9c.1,0,.2-.1.3-.2h0v.1a1.76,1.76,0,0,0-.4.5,6.89,6.89,0,0,0-1.1,1.3,5.24,5.24,0,0,1,1.1-1,.31.31,0,0,0-.1.2l.2-.2.1-.1a4.57,4.57,0,0,0-.4.6s.2-.3.5-.7l.1-.1c.1-.1.2-.1.2-.2v.1a4.35,4.35,0,0,1-.6.7l-.7.7a1.38,1.38,0,0,1,.4-.3c-.2.3-.3.5-.2.5-.1,0,.1-.3.3-.6l.2-.2c-.3.5-.7,1-1,1.6a10.38,10.38,0,0,1,1.2-1.7h0c-.1.1-.2.2-.2.3h0l-.1.1v.1a8.79,8.79,0,0,0-.6,1c.3-.4.5-.7.8-1.1l-.1.1a10.09,10.09,0,0,0-.7,1.5,3.18,3.18,0,0,0-.3.9,6.11,6.11,0,0,1,.7-1.4h0a.1.1,0,0,1,.1-.1h0v.1a7.84,7.84,0,0,0-.5,1.4,1.69,1.69,0,0,1,.2-.5,8.33,8.33,0,0,0-.4,1.5,6,6,0,0,1,.3-.7v.4a1.27,1.27,0,0,1,.1-.6c.1-.1.1-.2.2-.3a2.14,2.14,0,0,0-.1.6,1.44,1.44,0,0,1,.2-.3,2.72,2.72,0,0,0,0,.9v.1c-.1.4-.2.9-.3,1.4a5.64,5.64,0,0,1,.4-1.2v1.2a6.6,6.6,0,0,1,.1-1.4h0a1,1,0,0,1-.1.4.77.77,0,0,1,.1-.3V56a3.79,3.79,0,0,0,0,1.5,4.87,4.87,0,0,1,.1-1.2v.1a2.2,2.2,0,0,0-.1.8c0-.2.1-.5.1-.7v.2a.35.35,0,0,0,.1.2v.2l-.1.1h0v.1c-2,2.7-4.8,6.2-5.5,8.1a15.77,15.77,0,0,0-1.1,3.7,38.2,38.2,0,0,0-.2,29.5v3.6c.1,9.4,4.2,14.3,3.4,19.2a34.68,34.68,0,0,0-2.1,9c-.1.3-.2.7-.2.7a.35.35,0,0,1,.1-.2c0,.2-.1.3-.1.5v.1a.6.6,0,0,1-.1.4c0,.2-.1.4-.1.6s-.2.5-.2.4.1-.2.1-.3a2.2,2.2,0,0,0-.1.8,3.55,3.55,0,0,1,.2-1,.9.9,0,0,1-.1.5h-.1l.1.1v.2c0,.1-.1.2-.1.3a.31.31,0,0,0,.1-.2v-.2h0v0h0v.2c0,.1-.1.2-.1.3a.31.31,0,0,1,.1-.2v.2h0v-.1a.76.76,0,0,1,.1-.4v.4h0a4.3,4.3,0,0,0,0,1.6v-.8h0v.2h0v.1c0-.2.1-.4.1-.6v1.6a.76.76,0,0,1,.2-.5,3.4,3.4,0,0,0,.1,1,4.05,4.05,0,0,1,0-1.1v.1h0v.5h0v.1h0c0,.1,0,.1.1.1v-.1h0v-.3c0,.5,0,.9.1.8a3.08,3.08,0,0,1-.1-1c0,.4,0,.9.1.9V136a.37.37,0,0,0,.1.3c0-.2-.1-.3-.1-.5v-.1h0v.1h0c0,.1,0,.1.1.2v.2c0,.3,0,.6.1.6a1.21,1.21,0,0,1-.1-.5v.2a13.84,13.84,0,0,1,0,6.4c-1.2,6.7-3.5,7.2-2.7,12.3.3,1.6,2.3,2,2.3,2a1.63,1.63,0,0,0,1.5,1.1l.6-.4s-.5.8,5.3.6a5.34,5.34,0,0,0,2.2.2.67.67,0,0,0,.6-.7s.1.2.9.2,1.2-1.1,1.2-1.1,1.7-.4,1.7-1.7c0,0,1.1.3,1.3-.4s.4-.6.1-1.2c0,0,.7-.8.4-3.2s-2.5-2.6-2.7-6.9c-.6-3.2-1.3-4.1-.8-7.1h0v0a1.7,1.7,0,0,0,.1-.7v.3h0v-.4c.1-.2.1-.4.2-.5v.4a.31.31,0,0,1,.1-.2v.2h0v-.2a.76.76,0,0,1,.1-.4v.6a3.78,3.78,0,0,0,.1-.8v.5a4.1,4.1,0,0,0,.1-1.1v.3h0v.1a.44.44,0,0,0,.1-.3c0-.1.1-.2.1-.4v0c.1.3.1.6.2,1a17.36,17.36,0,0,0-.1-1.8v0a2.14,2.14,0,0,1,.1-.6v.3a5.1,5.1,0,0,1,.1.9V132h0a8.33,8.33,0,0,1,.1,1.2v-.9a1.75,1.75,0,0,1,.1.5,10.33,10.33,0,0,0-.1-1.4v-.8h0v0h0v-1h0v-1.5a5.83,5.83,0,0,0-.2-2.3s-.8-1.5.6-4.6a47.05,47.05,0,0,0,2.7-7.1,6.38,6.38,0,0,1,1.6-2.9h.2l-.1.1c.1,0,.2-.1.3-.1s.2-.1.4-.1a.35.35,0,0,1-.2.1.37.37,0,0,1-.3.1c.1,0,.1,0,.2-.1l-.1.1a.31.31,0,0,0,.2-.1h-.1c.1,0,.1-.1.2-.1s.3-.2.5-.2h.1c-.1.1-.2.1-.3.2a.31.31,0,0,1-.2.1c.1,0,.2-.1.3-.1s.1-.1.2-.1a.91.91,0,0,1-.5.3,4.2,4.2,0,0,1,.5-.2.76.76,0,0,1,.4-.2l.1-.1c.1,0,.1-.1.2-.1a.91.91,0,0,1-.5.3,4.2,4.2,0,0,1,.5-.2c.1,0,.2-.1.3-.2l-.1.1.5-.3h0a4,4,0,0,1-.4.3l.3-.1-.1.1a1.24,1.24,0,0,1,.3-.2h.3a.37.37,0,0,0,.3-.1,1.21,1.21,0,0,0,.5-.5c.1,0,.1,0,.2-.1a3.91,3.91,0,0,1-.5.4l.6-.3a1.24,1.24,0,0,1-.2.3l.5-.5c.1,0,.1,0,.2-.1l-.4.4s.3-.2.5-.3l-.3.3s.3-.2.5-.3h0a1.44,1.44,0,0,0,.3-.2h0l.1-.1h.1l-.3.3h0a.78.78,0,0,0,.4-.4h0c-.2.2-.4.4-.5.4l.4-.2h0c.1-.1.2-.1.4-.2v0a1.38,1.38,0,0,0,.4-.3,1.73,1.73,0,0,1-.4.3l.8-.5-.4.4a1.44,1.44,0,0,0,.3-.2h0l.1-.1a.1.1,0,0,0,.1-.1c.1-.1.2-.1.3-.2h0l-.3.3.1-.1h0l.1-.1c.2-.2.6-.4.7-.5h0a5.2,5.2,0,0,0-.3.5,1.72,1.72,0,0,1,.4-.6h.1a1.4,1.4,0,0,1-.4.4l.2-.2c-.1,0-.1.1-.2.2a1.44,1.44,0,0,0,.3-.2l-.2.2a5,5,0,0,1,.8-.7h0c.1,0,.1-.1.2-.1-.2.2-.5.4-.5.5s.1-.1.2-.1l-.2.2c-.1,0,.5-.5.9-.8.1,0,.1-.1.2-.1a1.76,1.76,0,0,0-.5.4,1.38,1.38,0,0,1-.4.3c.1-.1.3-.2.4-.3s.3-.2.4-.3c-.1.1-.2.3-.3.4l.4-.4v0h0a.35.35,0,0,1,.2-.1l-.2.2.1-.1a.1.1,0,0,1-.1.1h0v.1a.31.31,0,0,1,.1-.2l.4-.4a.76.76,0,0,0-.2.4,1,1,0,0,1,.4-.5h.1a.1.1,0,0,0,.1-.1c.1,0,.1-.1.2-.1h0a.35.35,0,0,0-.2.1l.1-.1a2.65,2.65,0,0,1-.6.5,4.35,4.35,0,0,0,.7-.6h.1c-.1.1-.1.2-.2.2l-.1.1.1-.1c-.1.1-.1.2-.2.2.1-.1.3-.2.4-.4s.2-.1.3-.2l-.2.2h0l-.4.4c.2-.2.3-.4.5-.5a2.18,2.18,0,0,1,.5-.4c.1,0,.1-.1.2-.1l-.2.2h0l.1-.1a.52.52,0,0,1,.4-.2l-.1.1.2-.2c.1,0,.1-.1.2-.1h.1l-.1.1-.1.1a.35.35,0,0,1,.2-.1.1.1,0,0,0,.1-.1l-.2.2.2-.2h0a.1.1,0,0,1,.1-.1c.1,0,.1-.1.2-.1s.2-.1.3-.2a.1.1,0,0,1-.1.1l.2-.2h0l.1-.1h.1c0,.1-.1.2-.1.3.1-.1.1-.2.2-.3h.1a.77.77,0,0,0-.1.3,1.44,1.44,0,0,1,.2-.3c2.1,4.2,1.7,6.1,1.7,6.1l-1.3,4.1a.76.76,0,0,1-.2.4h0a.1.1,0,0,1-.1.1l-.2.2a.1.1,0,0,0,.1-.1.35.35,0,0,1-.1.2l-.1.1.1-.1-.1.1h0a.35.35,0,0,1-.2-.1l.2.2h.1l-.1.1a1.87,1.87,0,0,1-.4-.3l.3.3-.1.1H787a1.44,1.44,0,0,0-.3-.2.31.31,0,0,0,.1.2h-.1l.2.2h0l-.1.1h-.3a.31.31,0,0,1,.2.1h0l-.1.1.1-.1h0c-.2.2-.4.3-.5.5a2.18,2.18,0,0,1,.5-.4h0l-.6.6.6-.4-.5.4.4-.2a1.44,1.44,0,0,0-.2.3l.2-.1-.1.1c-.1.1-.1.1-.1.2a.31.31,0,0,1-.2.1h.1l.1-.1h0a1.24,1.24,0,0,1-.2.3h.1c-.1.1-.1.2-.2.2s.1,0,.2-.1h0a1.44,1.44,0,0,0-.2.3h.1l-.1.1a.1.1,0,0,1,.1-.1h0c0,.1-.1.1-.1.2,0-.1-.1-.1-.1-.2a.31.31,0,0,0,.1.2.1.1,0,0,1-.1.1h0l-.2-.2.1.2h0l-.1.1c-.1.1-.4.1-.4.1h.2a.1.1,0,0,0-.1.1.35.35,0,0,1,.2-.1h0c-.2.2-.4.3-.5.4h0a.31.31,0,0,1-.2.1.77.77,0,0,0,.3-.1h.3l-.1.1h-.1a.37.37,0,0,1-.3.1.77.77,0,0,0,.3-.1h0c-.1.1-.1.1-.2.1a.1.1,0,0,1-.1-.1l.1.1c-.1,0-.1.1-.1,0h.1l.1.1h0l.1.1c-.1,0-.2-.1-.3-.1l.2.2h.1c.1,0,.1.1.2.1v.1h0c-.1-.1-.2-.1-.3-.2l.2.2h0a.31.31,0,0,0-.2-.1l.1.1h0a1.87,1.87,0,0,1-.4-.3,1.24,1.24,0,0,0,.3.2h-.2l-.1-.1.1.1H785c.1,0,.1,0,.2.1l.1.1h-.4c0-.1.2,0,.4,0h-.5v0a2.18,2.18,0,0,0-.6.1c0-.1.3-.1.7,0,.1,0,.1.1.2.1-.5,0-.9,0-.9.1,0-.1.6,0,1.2.1l.1.1-.1-.1.1.1h-.1a.1.1,0,0,1-.1-.1.1.1,0,0,1,.1.1,2.92,2.92,0,0,0-.9-.2,3,3,0,0,1,.8.4h-1a2.18,2.18,0,0,0,.6.1h.1c-.3,0-.6.1-.6,0,0,.1.4.1.9.1h0v0h.2c0,.1-.1.1-.1.2l-1.2-.3a5.64,5.64,0,0,1,1.2.4v.2c0-.1,0-.1.1-.2l.1.1v0c.1,0,.1.1.2.1a2.65,2.65,0,0,1,.6.5,28.52,28.52,0,0,1,1.3,4.8c0,1.2.1,8,.9,9.5a4.39,4.39,0,0,1,.7,2.2s.1,5.6,1.3,7a3,3,0,0,0,2.5,3.4h.4s.5,1.2,4.6,1.1c0,0,1.6.2,1.8-.4a2.62,2.62,0,0,0,2.1.4.81.81,0,0,0,.3-.9s3.1.4,4.3-.6c0,0,1.7.6,2.2-.3,0,0,1.2-.2,1.2-.7s-1.1-1.8-1.1-1.8a4,4,0,0,0-1.7-3c-1.6-.9-.7-1.5-3.7-2.1s-4.3-6.7-2.7-13.7a20.16,20.16,0,0,1,5.6-10.8c1.1-1.4.7-.2,1.4-1.7a59.16,59.16,0,0,0,.4,9.4c.7,4.9,1,12.9,2.2,17.2a57.08,57.08,0,0,1,1.8,8.2v.3a10.46,10.46,0,0,0-.4,1.7s.1-.4.3-1v.1h0a.76.76,0,0,1-.1.4c0-.1,0-.1.1-.2a2.2,2.2,0,0,0-.1.8,3.4,3.4,0,0,0-.1,1,.37.37,0,0,1,.1-.3v0c0-.1.1-.1.1-.2v.4a1,1,0,0,1,.1-.4v.9a10.87,10.87,0,0,1-.1,1.3.9.9,0,0,0,.1-.5c0,.1,0,.2.1.2a.77.77,0,0,0-.1-.3v.3a1.27,1.27,0,0,0,.1.6v0h0v.1a5.85,5.85,0,0,0,.2,1.3h0v-.1c0-.2-.1-.3-.1-.5v.3a.58.58,0,0,0,.1.4.44.44,0,0,1-.1-.3v.1c0-.1,0-.2-.1-.2v-.2a1.75,1.75,0,0,1,.1.5,2.44,2.44,0,0,1-.1-.7h0c.1.7.2,1.2.3,1.2-.1,0-.2-.4-.2-1a4.4,4.4,0,0,0,.2,1,3.55,3.55,0,0,1-.2-1h0a.76.76,0,0,0,.1.4v.2c0,.2.1.3.1.5v.1h0v-.3a1.61,1.61,0,0,0,.3.9,3.59,3.59,0,0,1-.2-1.1h0a2.35,2.35,0,0,0,.2.8c0-.2-.1-.4-.1-.6,0,.1.1.1.1.2v.3h0a1.42,1.42,0,0,0,.2.6.35.35,0,0,0,.1.2l-.1-.1h0a.1.1,0,0,0,.1.1l-.1-.1h0a4.33,4.33,0,0,1-.1-.5v0a.35.35,0,0,0,.1.2.31.31,0,0,0-.1-.2l.1.1c.1.5.2.8.3.8-.1,0-.1-.3-.2-.7h0l.2.6a1,1,0,0,0-.1-.4c0,.1.1.1.1.2a.37.37,0,0,0,.1.3v-.2c0,.1.1.2.1.3a10.6,10.6,0,0,1,.5,5.3,27.6,27.6,0,0,0-.6,5.7c-.2,3.9-1.3,7,4.8,7a2.5,2.5,0,0,0,2.2.9l.4-.7a10.3,10.3,0,0,0,6.2,1.1s2.4,1.3,2.5-.1c.3.1.7.2,1,.3,1,.1,1.1-.4,1-1.9,0,0,1.1.2,1.3-.7a2.74,2.74,0,0,0,2,.1,3.78,3.78,0,0,0-.8-3.4,9.27,9.27,0,0,0-3.1-4.2,5.52,5.52,0,0,1-1.9-4.8,9.79,9.79,0,0,0-1.7-6s-.4-.3-.1-2.8a1.27,1.27,0,0,1,.1-.6.35.35,0,0,0,.1.2V153a2,2,0,0,0,.1.5v.1a3.4,3.4,0,0,0-.1-1h0a.31.31,0,0,0,.1.2v.1a.49.49,0,0,1,.1.3h0v.1a.76.76,0,0,0-.1-.4c0-.1,0-.2-.1-.2v-.6h0a2.18,2.18,0,0,0,.1.6v-.3a2.14,2.14,0,0,1,.1.6v-.6h0a.9.9,0,0,0-.1-.5v-.1c0,.1,0,.2.1.2v.2a1.27,1.27,0,0,1,.1.6v-1c.1.7.3,1.4.3,1.5,0-.1-.1-1-.2-1.9a.35.35,0,0,0,.1.2.31.31,0,0,0-.1-.2.9.9,0,0,0-.1-.5.1.1,0,0,0,.1.1.1.1,0,0,0-.1-.1,6.37,6.37,0,0,0-.2-.9,6.37,6.37,0,0,1,.2.7v-.3a8.14,8.14,0,0,0-.2-.9h0a.37.37,0,0,1,.1.3c0-.2-.1-.3-.2-.5v-.2c.1.1.1.3.2.5s.1.2.1.3v-.1c.2.6.4,1.1.4,1.1a27.59,27.59,0,0,0-.8-2.7v-.1a.77.77,0,0,1,.1.3.77.77,0,0,0-.1-.3v0a2.07,2.07,0,0,0-.2-.6v-.1a1.09,1.09,0,0,1,.1.5.6.6,0,0,0-.1-.4h0v-.1c0-.1-.1-.2-.1-.4.1.2.1.3.2.5,0-.2-.1-.3-.1-.5v-.2c0,.1,0,.1.1.2v0c.1.3.2.7.3,1a5.73,5.73,0,0,0-.4-1.4v-.1h0a11.43,11.43,0,0,1,.6,1.4,20.94,20.94,0,0,0-1.3-3.5c-.2-.7-.3-1.3-.6-2.1-1.3-4.8.9-17.3,4.4-19.6,0,0,1,1.7,10,.7a14.89,14.89,0,0,1,4.2-.3c2.1.1,3.3,1.6,14.7-.4l.1.2c-.3,6.5-.5,10.9-.5,10.9s-.2,1-.4,2.3h0v.2a.49.49,0,0,0-.1.3l.1-.1c0,.1,0,.1-.1.2a.31.31,0,0,1,.1-.2v.3h0v.1l-.2.4.2-.2c-.1.1-.2.3-.3.4l.3-.3h0l-.4.4a.35.35,0,0,0,.2-.1c0,.1-.1.2-.1.3a.1.1,0,0,1-.1.1h.1l.1-.1q-.15.3-.3.3a.75.75,0,0,0,.3-.3.35.35,0,0,1-.1.2v-.1h0a.1.1,0,0,1-.2,0,.1.1,0,0,0,.1.1l-.2.2a.31.31,0,0,0,.2-.1c-.1.2-.2.3-.3.5l.2-.2-.2.4.2-.2v.1l.2-.2v-.1h0c0,.1-.1.1-.1.2a1.87,1.87,0,0,1-.3.4l.2-.2v.1h0v.1h0a.1.1,0,0,1-.1.1l.1-.1v.1a.1.1,0,0,1,.1-.1h0c0,.1-.1.2-.1.3l-.2.2.2-.1v.1c-.1.1-.1.1-.2.1h.1a.49.49,0,0,0-.1.3.31.31,0,0,0-.1.2l.2-.2a.37.37,0,0,0-.1.3h0v.1h-.1l-.1-.1a.31.31,0,0,0,.1.2v.1c-.1.1-.1.1-.1.2l-.1.1a.1.1,0,0,0,.1-.1h0l.1.1c-.1.2-.2.4-.2.3a.31.31,0,0,0,.2-.1c0,.1-.1.1-.1.2a.1.1,0,0,1-.1-.1.1.1,0,0,0,.1.1,1.44,1.44,0,0,0-.2.3v0a.1.1,0,0,1-.1.1l.1-.1a.1.1,0,0,0,.1.1l-.4.4a1.73,1.73,0,0,0,.4-.3h.1a1.73,1.73,0,0,1-.4.3l.3-.3c-.1.1-.1.2-.2.3h-.1c-.1,0-.2.1-.3.1h.3c-.1,0-.1.1-.2.1h.1c-.1,0-.1.1-.2.1l-.1-.1v.1a.1.1,0,0,0,.1.1h-.1a1.87,1.87,0,0,1-.4-.3l.3.3h0c-.2-.1-.5-.1-.7-.2a2.09,2.09,0,0,0,.6.4h-.1c-.3-.1-.7-.1-1-.2.4.1.7.2,1,.3h0c.1,0,.1,0,.2.1a.1.1,0,0,0-.1.1c.1,0,.1,0,.2-.1h.1c-.1,0-.1.1-.2.1a.1.1,0,0,1-.1-.1.1.1,0,0,1,.1.1h-.1c-.3-.2-.5-.4-.5-.3a2.22,2.22,0,0,1,.5.4l-.2.2c.1-.1.2-.1.2-.2a1,1,0,0,1,.4.5l.2.2c-.1-.1-.1-.1-.2-.1l.2.2c0,.1.1.1.1.2l-.1-.1-.1-.1.1.1-.1-.1a.1.1,0,0,1,.1.1c0,.1.1.1.1.2v.2a.76.76,0,0,0,.2.4h0l-.1-.1.1.1h-.1l.1.1h0a.1.1,0,0,0,.1.1h-.1a.1.1,0,0,1,.1.1c.1.1.1.2.2.3a.31.31,0,0,0-.2-.1.31.31,0,0,1,.2.1c-.1-.1-.2-.1-.2,0,0-.1.2.1.4.2h0c-.1,0-.1-.1-.2-.1l.3.3v.2a1.44,1.44,0,0,0-.3-.2l.2.2-.1-.1.3.3h0a2.2,2.2,0,0,1,.1.8,13.65,13.65,0,0,1-.7,2.9h0c-.1,0-.1,0-.1-.1l.1.1c-.1,0-.1.1-.2.1a.31.31,0,0,0,.2-.1h0l-.1.1.1-.1h0a.1.1,0,0,0-.1.1l-.1.1h0v.1h0a.1.1,0,0,0-.1.1h-.1l-.2-.4a1,1,0,0,0,.1.4h0v.1h0v.1h-.2a2.18,2.18,0,0,0-.4-.5l.3.6c-.3.1-.5.1-.5.2a1.21,1.21,0,0,1,.5-.1c0,.1.1.1.1.2s.1.2.2.2l.3.3a.1.1,0,0,1-.1-.1c.1,0,.1.1.2.1h0l.1.1a3.59,3.59,0,0,1-1-.7,2.73,2.73,0,0,0,1.2.9h0a2.09,2.09,0,0,0,.6.4l-.1.1h.2a.76.76,0,0,1,.3.9,24.94,24.94,0,0,1-.2,6.1,3.11,3.11,0,0,0,.7,2.8,6,6,0,0,1,1.2,3.1,2.58,2.58,0,0,0,2.2,2.9h0a1.69,1.69,0,0,1,1,.3,8.16,8.16,0,0,0,5.8,2.1c2.1,0,2.4-.6,2.4-.6a3.22,3.22,0,0,0,2.8.9,1.67,1.67,0,0,0,.1-1.2c2.4,0,3-.9,3-.9a2.39,2.39,0,0,0,1.4.5c.5,0,.5-1,.5-1a3.55,3.55,0,0,0,1,.2c.7-.6-.3-2.8-.3-2.8.1-3.6-6.7-6-8-6.7-1-.6-1.3-1.1-1.3-1.3h0a3.47,3.47,0,0,0-1-2.5,1.78,1.78,0,0,1-.4-1,14.43,14.43,0,0,1,1.1-7.4,79.3,79.3,0,0,0,2.5-8.3,32.51,32.51,0,0,1,1.8-4.3,64.54,64.54,0,0,0,6.6-16.9,17.46,17.46,0,0,0,1.7-6.7c.1-1.7.1-3.3.1-3.3.1-2.1,0-4.1-.1-6.2h.2c5.7.7,7.8-1.9,7.8-1.9,2.8.3,3.5-1.2,3.5-1.2a12.2,12.2,0,0,0,3.4-8.5,12.11,12.11,0,0,0-1.9-7.4,5.73,5.73,0,0,1-.6-2.5,41.83,41.83,0,0,1,.6-5.1,15.14,15.14,0,0,0-.2-3,8.66,8.66,0,0,1,.6-3.2,28.67,28.67,0,0,0-1.1-9.2l-.1-.2s-1-1.9-.6-2.4a6.37,6.37,0,0,0,.4-2.4s.3-1.9,1.5-1.2c0,0,.5,4.9,2.7,4.9,1,0,.7-1,.7-1a27,27,0,0,1-.2-5.2Zm-139.7,3c.1-.2.1-.4.2-.6a1.42,1.42,0,0,0-.2.6Zm.4.9v.3c0,.1-.1.1-.1.2a4.33,4.33,0,0,1,.1-.5Zm-.1.7v-.2a.1.1,0,0,1,.1-.1v.1a.35.35,0,0,1-.1.2Zm-5.2,77.4h0c-.1.1-.1,0,0,0Zm0-.1h0v0Zm0,.1h0v0Zm0,.3v-.3h0v.3Zm0-.9Zm.1.6Zm0,2Zm5.9-83.5-.2.2a.1.1,0,0,1,.1-.1c.1-.1.1-.2.1-.1Zm.3-1.6.2-.2-.2.2Zm.1,0-.2.2-.1.1q.15,0,.3-.3Zm-.5.3c.2-.1.3-.3.5-.4l-.2.2c-.1.1-.2.1-.3.2Zm0,.3a1.76,1.76,0,0,1,.4-.5h.1c-.1.1-.1.2-.2.3s-.3.1-.3.2Zm-.2.7h0c0-.1.2-.3.4-.5a.35.35,0,0,1,.2-.1l.2-.1-.3.3a2.18,2.18,0,0,0-.5.4Zm.7-.6h0c.1-.1.1,0,0,0Zm-.2-.3h0c.1-.1.2-.2.3-.2l.1-.1h0a1.38,1.38,0,0,1-.4.3Zm.4-.4h0c.1-.1.2-.1.3-.2-.1.1-.2.1-.3.2Zm.1.1Zm.3-.1h0c-.1,0-.1-.1,0,0Zm-.1-.3Zm.2-.1h0c.1-.1.1-.2.2-.2a.22.22,0,0,1-.2.2Zm.3-.3a2.7,2.7,0,0,0-.8.7.1.1,0,0,0-.1.1l.4-.4c.1-.1.3-.2.5-.4Zm.2-.3Zm.2-.1h0l.2-.2h.1c-.1.1-.2.2-.3.2Zm.8-.9c-.1,0-.2.1-.3.1a2.18,2.18,0,0,0-.8.5h-.2c.1-.1.3-.2.5-.4h0c.1-.1.2-.1.3-.2a3,3,0,0,1,1-.4c-.2.2-.4.3-.5.4Zm.5-.4c0-.1.1-.1,0,0a.31.31,0,0,1,.2-.1.31.31,0,0,0-.2.1Zm.8-.4h0c0-.1.1-.1,0,0Zm1-.5h0c0-.1.2-.1.4-.2-.2.1-.3.1-.4.2Zm2.1,89.6h0v-.6h0v.1c.1.1,0,.3,0,.5Zm.2-.7v0Zm.4-1.1v0Zm0-.2v0Zm.1-.3v-.3a.19.19,0,0,0,0,.3Zm.1-1.1h0v-.3h0v.3Zm.3-.9Zm8.8-21.9h0a.37.37,0,0,1-.3.1h0c.2,0,.2,0,.3-.1Zm-.6.3a.31.31,0,0,0,.2-.1h0Zm.2,0c.1,0,.1-.1.2-.1h.1l-.1.1Zm.4-.1a.35.35,0,0,0-.2.1l.1-.1a.37.37,0,0,1,.3-.1Zm2.6-1.2c-.2.1-.3.3-.4.3v-.1a.76.76,0,0,1,.4-.2Zm0,0Zm1.3-.6c-.1,0-.1.1-.2.1h0c.1-.1.1-.1.2-.1Zm.8-.4Zm1.6-.7c0-.1.1-.1,0,0h0c.1-.1.1,0,0,0Zm1.1-.6h0c.2-.1.2-.2.3-.2-.1.1-.2.2-.3.2Zm1.3-.7Zm0-.1Zm.1,0Zm.3-.2h0c0-.1.1-.1,0,0Zm-.7,13.6Zm-.1,0Zm-.7.5c.1-.1.3-.2.4-.3h.1c.1,0,.1-.1.2-.1h.1a.35.35,0,0,1-.1.2l-.1.1h0l-.1.1h-.5Zm.7-.1Zm-.2,1.6h0c-.1-.1,0-.1,0,0Zm0-.7h0c0,.1-.1,0,0,0Zm0-.1c0-.1-.1-.1,0,0Zm-.1-.7Zm0,0Zm.1.3h0c-.1-.1,0-.1,0,0Zm0,0c-.1,0-.1.1-.2.1s.1-.1.2-.1c-.1-.1-.1,0,0,0Zm0,.1Zm.1-.3Zm-.3-.1Zm-.2.4h0c-.1-.1-.1-.1-.2-.1.1,0,.1-.1.2-.1h.2v0h.1a.31.31,0,0,0-.1.2H786c-.1-.1,0-.1,0,0Zm.1,0Zm0,0Zm.1.1Zm.1,0h0c-.1.1-.1,0,0,0Zm-.1.2h0c.1,0,.1.1,0,0h0c.1.1,0,.1,0,0Zm0,.4h0c-.1.1-.1,0,0,0Zm-.3-.3c-.1,0-.1-.1,0,0Zm-.1.4c-.1,0-.2-.1-.3-.1.2,0,.4.1.6.1v.1c-.1-.1-.2-.2-.3-.1Zm.4.2Zm-.1.8c0-.1.1-.1.1-.2h.1v.3a.35.35,0,0,1-.2-.1Zm.4.2c-.1,0-.1-.1-.2-.1v-.1a.22.22,0,0,1,.2.2Zm.1.1c-.1-.1-.3-.2-.3-.3v-.1h.1a.1.1,0,0,1,.1.1c.1.1.2.2.1.3Zm.8-4.4Zm.5-1.2Zm.2.3h0c-.1-.1,0-.1,0,0Zm24.5,34.9Zm0,0h0v0Zm.3,3.2h0c0,.1-.1.1,0,0Zm.9,3.2Zm0-.1c-.1-.2-.1-.4-.2-.6a1.42,1.42,0,0,0,.2.6Zm14-5.8Zm.1.6Zm0-.6c0-.1-.1-.3-.1-.4v-.1c0,.1,0,.1.1.2v.3Zm.1-.3c0-.2-.1-.3-.1-.4v.1a.37.37,0,0,0,.1.3Zm-.2-2.1c0,.1.1.2.1.3,0-.1,0-.1-.1-.2v-.1Zm0,1.2a.37.37,0,0,0,.1.3h0c-.1-.1-.1-.1-.1-.3Zm-.1-1.2Zm0,3.9Zm-.2-5.7v.2h0v-.2Zm-.1-1.3h0a1.09,1.09,0,0,1,.1.5,4.33,4.33,0,0,1-.1-.5.31.31,0,0,1-.1-.2.35.35,0,0,1,.1.2Zm-.1-.4h0c-.1-.1-.1,0,0,0ZM830,52.1a2.66,2.66,0,0,0-1.2.3h-.1c-.1,0-.2-.1-.3-.2a3.08,3.08,0,0,1,1-.1,4.2,4.2,0,0,0-.5.2,7.78,7.78,0,0,0,.9-.3h.5Zm.7-.3Zm.4-.4Zm2.2-.3a.35.35,0,0,1-.2-.1l.2.1Zm.5.1h0c-.2,0-.3-.1-.4-.1h.2l.2.1Zm.5,0c-.1,0-.2-.1-.2,0,0-.1.1-.1.2,0h-.2c-.1,0-.1,0-.2-.1h0a1.27,1.27,0,0,1,.6.1c-.2-.1-.2-.1-.2,0Zm23.3,88.9Zm0,5.3h0c-.1-.1,0-.1,0,0Zm-.1-.6Zm-.3-.8h-.3l-.1-.1h-.1l-.1-.1a.1.1,0,0,1-.1-.1h.3l.1.1-.1.1h.1c.1-.1.2,0,.3.1Zm.2-2.1h0c-.1.1,0,.1,0,0Zm.1-.8Zm-.1.1c0-.1.1-.1,0,0h0c.1-.1,0-.1,0,0Zm.2,0Zm-.1-.2Zm0,.1Zm-.1.8Zm-.1,2.1c0-.1.1-.1,0,0h0c.1-.1.1,0,0,0Zm.1-1.3Zm.1-1.1Zm-.2.2h0c-.1.1-.1.2-.2.2.1,0,.1-.1.2-.2Zm-.1.2c0-.1.1-.2.2-.3h0c-.1.1-.2.2-.2.3Zm.2.4h0c-.1.1-.1,0,0,0Zm-.3,1.3Zm.2.1Zm-.6-.2h.2a.1.1,0,0,0,.1.1h0c-.2-.1-.2-.1-.3-.1Zm.1.1c0-.1-.1-.1,0,0Zm.3-.7h0c0,.1-.1.1,0,0h0c-.1.1-.1,0,0,0Zm.1.1Zm-.1.5Zm-.1-.5Zm-.1.6Zm.1,0Zm.3-1.5Zm-.1.5h0l-.3.1c.1,0,.2-.1.3-.1Zm-.1.2h0c-.1,0-.2.1-.3.1l.1-.1Zm-.1.1h-.2l-.1-.1a.37.37,0,0,0,.3.1Zm-.3.1Zm.5.7Zm0,.4c0,.1.1.1,0,0h0c.1.1,0,.1,0,0Zm.1-1.5Zm0,.4Zm0,.6Zm.1.9Zm.1.1Zm.1-4Zm-.1.1Zm-.1,0Zm-.1,0Zm-.1.3h0a.35.35,0,0,0,.1-.2.1.1,0,0,1,.1-.1l.1.1v.1h0v.2c-.2,0-.3,0-.3-.1Zm0,.4a.35.35,0,0,1,.1-.2h0c.1,0,0,.1-.1.2.1-.1.2-.1.2-.2h0v.1a.1.1,0,0,1-.1.1c-.1,0-.2.1-.1,0Zm0,.1c.1,0,.1-.1.2-.1a.1.1,0,0,1-.1.1c0,.1-.1,0-.1,0Zm-.3.4c.1-.1.1-.2.2-.3a.1.1,0,0,1,.1.1v.1c-.1,0-.2.1-.3.1a.37.37,0,0,0,.3-.1c0,.1-.1.1-.1.2l-.1.1c0-.1-.1-.1-.1-.2Zm.2.2h0a.22.22,0,0,1,.2-.2l-.2.2Zm.1,0Zm0,.1h0c0,.1,0,.1-.1.2s-.1.1-.2.1l.3-.3Zm-.3.3a.35.35,0,0,1,.2-.1h0c-.1,0-.1.1-.2.1Zm.1-.1Zm-.1.1Zm-.4.3a.76.76,0,0,0,.4-.2h.1c-.1.1-.2.1-.3.2h0l-.1.1-.1-.1Zm.1.1Zm0,.6h0c0,.1-.1.1,0,0Zm-.2.2h0c.1,0,.3.2.4.3a1.38,1.38,0,0,1-.4-.3Zm.1-.1h0c.1,0,.2,0,.2.1l.2.2-.1-.1.2.2c-.3-.2-.5-.3-.5-.4Zm.5.4c-.1-.1-.2-.2-.3-.2.1.1.3.2.4.3h0c0-.1,0-.1-.1-.1h0c.1.1.1,0,0,0Zm0,.7Zm.1-.4Zm0-.4Zm.1.5Zm.1.1h0c.1,0,.1.1,0,0Zm.2,1c0-.1-.1-.1-.1-.2h0c0,.1,0,.1.1.2h0c.1,0,.1.1.2.1-.1,0-.2,0-.2-.1Zm.2-4.4Zm0-.3h0c-.1.1-.1,0,0,0Zm.1-.3Zm-.1-.3c0,.1-.1.1-.1.2h0v.1c-.1.1-.1.2-.2.3h0a3.33,3.33,0,0,1,.3-.6h0c.1-.1,0-.1,0,0Zm.2-.9Zm-.7,11.2Zm-.1.1Zm0,.1h0c-.1.1-.1,0,0,0Zm-.2.2Zm.1.1h0c-.1,0-.1-.1,0,0Zm0,.2h0c.1-.1.1,0,0,0Zm.1-.3Zm-.1,0Zm.1-.1h0c-.1-.1-.1,0,0,0Zm-.1-.1Zm0,0Zm-.2.1h0c0,.1.1,0,0,0Zm.1.5-.2-.2h.2v.2h0c0-.1-.1,0,0,0Zm.1.1Zm0,0h0a.31.31,0,0,1,.2.1h0c-.2,0-.2,0-.2-.1Zm.2-.6h0c0,.1-.1.1,0,0-.1.1-.1,0,0,0Zm0-.2Zm8.3-112.8Zm0,0h0c.1,0,.1-.1.2-.1s0,.1-.2.1Zm.5,0h0Zm-.1-.1Zm.1.1h0c-.1,0-.1,0-.2.1a.31.31,0,0,0,.2-.1Zm-.2.1h.2v.1c0-.1-.1-.1-.2-.1Zm.2.1Zm.3,0Zm-.1-.1Zm-.1,0h0c.1,0,0,.1,0,0Zm.3.1h.2c-.1,0-.1.1-.2,0Zm.1.2Zm.7,0h0Zm0,0Zm-.5.1h0c.1-.1.2-.1.2-.2h.1c-.1,0-.1,0-.3.2Zm.2.1Zm.3-.1Zm0,0Zm1.3.8Zm-.2-.4Zm-.4,0h0c.1-.1.1,0,0,0Zm-.5,0Zm.2,0Zm.1-.1h0Zm0-.1h0c.1,0,.1.1,0,0Zm.1.3Zm.2-.1Zm.2.3Zm0,.3Zm.1-.1h0c0-.1.1-.1.2-.1-.1,0-.1,0-.2.1Zm.3.1h0c-.1,0-.1.1-.2.1h0c0-.1.1-.1.2-.1Zm0-.2a4.33,4.33,0,0,0,.5-.1c-.1,0-.2.1-.3.1h-.2Zm.1.2h0c.1-.1.2-.1.2-.2v.1a.31.31,0,0,1-.2.1Zm.3,0h0c0-.1,0-.1.1-.2a.35.35,0,0,0-.1.2h0c-.1-.1,0-.1,0,0,0-.1-.1-.1,0,0Zm0,.4Zm0-.2Zm.1.2Zm.2-.3a.35.35,0,0,0-.1.2l.1-.2Zm.4.3Zm-.1-.2h0c-.1,0-.1-.1,0,0-.1-.2,0-.2,0-.2l-.2.2h0l-.1.1v-.2h0v-.1a.76.76,0,0,0,.4-.2.37.37,0,0,1-.3.1c.1,0,.2-.1.3-.1h.2c-.1.1-.1.2-.2.3s0,.1-.1.1Zm.4.2Zm.1-.2c0-.1.1-.1.1-.2h0c0,.1,0,.2-.1.2Zm.4-.1c-.1.1-.1.3-.2.4h-.1c0-.1.1-.2.1-.4a.1.1,0,0,1,.1-.1l.1.1Zm0-.3Zm0,0h0V39c.1,0,.1.1,0,.2Zm1.9-1.1c.2.1.5.1.7.2h0a6.37,6.37,0,0,1-.7-.2Zm.3.4Zm0,.2Zm-.1-.1c-.1,0-.1.1,0,0Zm-1.3-.1h.2c.1.1.3.1.4.2a1.42,1.42,0,0,1-.6-.2Zm.6.4Zm-.7-.1h0a.76.76,0,0,1,.4.1.1.1,0,0,1,.1.1v.1c-.2-.1-.3-.2-.5-.3Zm0,0c.1.1.2.1.3.2h-.1c-.1,0-.1,0-.2-.2Zm-.2.4h0c.1.2.1.3.2.3h-.1v-.1h0c-.1-.1-.1-.1-.1-.2Zm-.3.7h0v0Zm.1-.2v-.2h.1c-.1.1-.1.1-.1.2Zm.1-.5c0-.1-.1-.1,0,0h0v.2h0v.1h-.1v-1a.6.6,0,0,1,.1.4v.3Zm.1.6Zm.1-.1Zm.1,0Zm0-.4h0c.1.1,0,.1,0,0Zm.2,0h-.2v-.1a.31.31,0,0,1,.2.1Zm.2,0Zm-.2-.1a.35.35,0,0,0-.1-.2c.1,0,.1.1.2.1s.1.1.1.2c-.1-.1-.1-.1-.2-.1Zm.2,0Zm0-.1h0c-.1,0-.1,0-.2-.1a.31.31,0,0,0,.2.1Zm.4,0c-.1,0-.2,0-.2-.1v-.1l.2.2c-.1-.1,0-.1,0,0Zm0-.2Zm.1.1Zm0-.3Zm0-.1Zm.1,0h0c.1.1,0,.1,0,0h0c-.1-.1-.1,0,0,0h0c-.1.1-.1.1-.2.1h0v0h0l-.4-.1h.6c.1,0,.2,0,.2.1v.1l-.1.1c0-.2,0-.3-.1-.3Zm.2.1Zm.1,0Zm0,0Zm0,.3Zm.2-.1h0c.1,0,.1.1,0,0Zm.1-.2Zm.2-.2h0c-.1,0-.1,0-.2-.1l.2.1h0Zm.1,0Zm.1-.2ZM856.7,143.8Zm-28.5,5c0-.1,0-.1-.1-.2,0,.1.1.1.1.2ZM869.6,38.3q0-.15-.3,0Zm-41,13.3h.5C828.8,51.6,828.6,51.5,828.6,51.6ZM744,11.7c0-2.9-1.9-3.9-5.2-3.9h-5V21h2.6V15.4h1.7l3.2,5.6h2.8l-3.6-5.8a3.34,3.34,0,0,0,3.5-3.1Zm-7.6,1.6V9.8h2.2c1.2,0,2.7.2,2.7,1.6,0,1.6-1.1,1.8-2.6,1.8Zm2.1-10.6a12,12,0,1,0,.5,0,.45.45,0,0,0-.5,0Zm0,21a9.3,9.3,0,1,1,9-9.6v.3a9,9,0,0,1-8.6,9.3Z"/></g></g></svg>