<svg xmlns="http://www.w3.org/2000/svg" width="10.084" height="12" viewBox="0 0 10.084 12"><path d="M12.431,38.341a2.5,2.5,0,0,1,1.34-2.272A2.878,2.878,0,0,0,11.5,34.875a9.508,9.508,0,0,0-2.371.555A18.343,18.343,0,0,0,7.084,34.9,3.247,3.247,0,0,0,4,38.47a6.677,6.677,0,0,0,.386,2.175c.343.983,1.581,3.394,2.872,3.354.675-.016,1.152-.48,2.031-.48.852,0,1.294.48,2.047.48,1.3-.019,2.422-2.21,2.749-3.2a2.656,2.656,0,0,1-1.653-2.462Zm-1.516-4.4A2.523,2.523,0,0,0,11.558,32a2.841,2.841,0,0,0-1.819.935,2.563,2.563,0,0,0-.686,1.926A2.25,2.25,0,0,0,10.915,33.942Z" transform="translate(-4 -32)"/></svg>